# xmcd
#
# Track frame offsets:
#	150
#	50095
#	82317
#	149246
#	184170
#
# Disc length: 2728 seconds
#
# Revision: 1
# Processed by: cddbd v1.5.2PL0 Copyright (c) Steve Scherf et al.
# Submitted via: audiograbber 1.83.01
#
DISCID=510aa605
DTITLE=Grateful Dead - 80-01-13 Oakland Coliseum Arena, Oakland CA
DYEAR=1900
DGENRE=
TTITLE0=Playing In The Band
TTITLE1=Drums
TTITLE2=Not Fade Away
TTITLE3=Sugar Magnolia
TTITLE4=US Blues
EXTD=
EXTT0=
EXTT1=
EXTT2=
EXTT3=
EXTT4=
PLAYORDER=
